<?xml version="1.0" standalone="no"?>
<!DOCTYPE svg PUBLIC "-//W3C//DTD SVG 20010904//EN"
 "http://www.w3.org/TR/2001/REC-SVG-20010904/DTD/svg10.dtd">
<svg version="1.0" xmlns="http://www.w3.org/2000/svg"
 width="225.000000pt" height="225.000000pt" viewBox="0 0 225.000000 225.000000"
 preserveAspectRatio="xMidYMid meet">
<metadata>
Created by potrace 1.14, written by Peter Selinger 2001-2017
</metadata>
<g transform="translate(0.000000,225.000000) scale(0.100000,-0.100000)"
fill="#000000" stroke="none">
<path d="M908 2235 c-67 -18 -126 -55 -180 -113 -78 -83 -111 -169 -110 -283
l2 -66 -45 -6 c-125 -18 -215 -120 -215 -246 0 -33 5 -72 11 -88 9 -24 7 -30
-13 -45 -77 -60 -99 -84 -127 -139 -27 -54 -31 -72 -31 -143 0 -93 18 -143 78
-215 l36 -45 53 -375 c30 -207 58 -380 62 -384 12 -12 152 -41 307 -64 169
-25 609 -25 778 0 155 23 295 52 307 64 4 4 32 177 62 384 l53 375 36 45 c60
72 78 122 78 215 0 71 -4 89 -31 143 -28 55 -50 79 -127 139 -20 15 -22 21
-13 45 19 48 13 143 -10 190 -46 91 -114 137 -217 145 -49 4 -83 15 -147 48
-45 23 -128 56 -183 73 -77 24 -106 38 -125 61 -47 56 -44 131 8 180 48 45 27
75 -74 104 -65 19 -157 19 -223 1z m204 -70 c14 -6 13 -11 -3 -45 -27 -55 -24
-116 7 -178 31 -63 68 -86 209 -132 108 -35 163 -60 210 -96 25 -18 41 -22 90
-21 75 2 127 -22 162 -74 56 -85 35 -179 -58 -263 -67 -60 -121 -90 -226 -125
-155 -52 -342 -59 -566 -20 -60 11 -70 10 -85 -5 -30 -29 -4 -49 89 -68 322
-66 630 -8 832 157 l54 43 40 -23 c126 -76 151 -256 51 -370 -77 -87 -189
-110 -296 -60 -30 14 -60 25 -67 25 -7 0 -35 -18 -61 -41 -105 -87 -229 -132
-369 -132 -140 0 -264 45 -369 132 -26 23 -54 41 -61 41 -7 0 -37 -11 -67 -25
-107 -50 -219 -27 -296 60 -109 124 -67 320 83 386 66 29 70 39 39 95 -65 122
18 270 151 268 27 -1 64 -14 115 -42 157 -86 350 -128 540 -118 130 6 169 15
184 39 8 12 7 21 -6 33 -14 14 -28 15 -122 5 -200 -22 -432 24 -578 116 -43
26 -54 62 -45 153 12 140 112 254 254 290 38 9 135 6 165 -5z m-385 -1706 c13
-194 21 -354 19 -357 -3 -2 -25 -1 -48 2 l-44 7 -33 335 c-18 184 -30 338 -26
342 14 15 91 38 99 31 5 -5 20 -167 33 -360z m929 329 c3 -4 -9 -158 -27 -342
l-33 -335 -44 -7 c-23 -3 -45 -4 -48 -2 -6 7 41 702 49 715 5 8 20 6 52 -6 24
-9 47 -20 51 -23z m-1156 -9 c13 -6 21 -66 44 -296 15 -158 30 -305 33 -325
l5 -36 -43 9 c-24 6 -45 12 -48 15 -5 5 -90 597 -91 632 0 21 3 22 43 16 23
-4 49 -10 57 -15z m1350 -1 c-1 -35 -86 -627 -91 -632 -3 -3 -24 -9 -48 -15
l-43 -9 5 36 c3 20 18 165 33 322 15 157 31 289 35 294 7 8 60 21 97 25 6 0
12 -9 12 -21z m-946 -246 c3 -92 9 -231 12 -309 l6 -143 -28 0 c-74 0 -68 -19
-88 293 -9 155 -20 306 -23 334 l-6 53 60 -30 61 -30 6 -168z m543 -109 c-24
-368 -17 -343 -91 -343 l-28 0 6 143 c3 78 9 217 12 309 l6 168 57 28 c31 16
57 28 58 27 1 0 -8 -150 -20 -332z m-394 242 l37 -6 0 -295 0 -295 -47 3 -48
3 -7 180 c-15 423 -15 425 7 420 11 -2 37 -7 58 -10z m219 -107 c-2 -68 -7
-204 -10 -303 l-7 -180 -47 -3 -48 -3 0 295 0 295 38 6 c32 6 54 10 72 14 3 0
3 -54 2 -121z"/>
</g>
</svg>
